<svg xmlns="http://www.w3.org/2000/svg" width="1600" height="900" viewBox="0 0 1600 900">
  <defs>
    <linearGradient id="bg" x1="0" y1="0" x2="1" y2="1">
      <stop offset="0" stop-color="#0B0B0C" />
      <stop offset="1" stop-color="#0A0D1A" />
    </linearGradient>
    <radialGradient id="glow" cx="55%" cy="34%" r="70%">
      <stop offset="0" stop-color="#0057FF" stop-opacity="0.08" />
      <stop offset="1" stop-color="#000000" stop-opacity="0" />
    </radialGradient>
  </defs>
  <rect width="1600" height="900" fill="url(#bg)" />
  <rect width="1600" height="900" fill="url(#glow)" />
  <g fill="none" stroke="#0057FF" stroke-opacity="0.10">
    <path d="M200 300 L 400 200 L 600 350 L 800 180 L 1000 320 L 1200 200 L 1400 350" stroke-width="2" />
    <path d="M200 450 L 400 350 L 600 500 L 800 330 L 1000 470 L 1200 350 L 1400 500" stroke-width="1" stroke-opacity="0.06" />
  </g>
  <g fill="#0057FF" fill-opacity="0.08">
    <circle cx="200" cy="300" r="6" />
    <circle cx="400" cy="200" r="6" />
    <circle cx="600" cy="350" r="6" />
    <circle cx="800" cy="180" r="6" />
    <circle cx="1000" cy="320" r="6" />
    <circle cx="1200" cy="200" r="6" />
    <circle cx="1400" cy="350" r="6" />
  </g>
  <g fill="none" stroke="#C9A84C" stroke-opacity="0.08" stroke-dasharray="4 8">
    <circle cx="800" cy="500" r="180" stroke-width="1.5" />
    <circle cx="800" cy="500" r="120" stroke-width="1" />
    <circle cx="800" cy="500" r="60" stroke-width="0.5" />
  </g>
</svg>
