<svg xmlns="http://www.w3.org/2000/svg" width="1600" height="900" viewBox="0 0 1600 900">
  <defs>
    <linearGradient id="bg" x1="0" y1="0" x2="1" y2="1">
      <stop offset="0" stop-color="#0A0A0B" />
      <stop offset="1" stop-color="#0D1B2A" />
    </linearGradient>
    <radialGradient id="glow" cx="52%" cy="38%" r="70%">
      <stop offset="0" stop-color="#C9A84C" stop-opacity="0.10" />
      <stop offset="1" stop-color="#000000" stop-opacity="0" />
    </radialGradient>
  </defs>
  <rect width="1600" height="900" fill="url(#bg)" />
  <rect width="1600" height="900" fill="url(#glow)" />
  <g fill="none" stroke="#C9A84C" stroke-opacity="0.12">
    <path d="M120 690 C 380 560, 560 760, 820 620 C 1030 510, 1210 600, 1480 470" stroke-width="2" />
    <path d="M80 750 C 400 650, 600 800, 900 680 C 1100 590, 1300 660, 1520 540" stroke-width="1" stroke-opacity="0.07" />
  </g>
  <g fill="none" stroke="#0057FF" stroke-opacity="0.07">
    <rect x="200" y="350" width="4" height="220" rx="2" />
    <rect x="260" y="280" width="4" height="290" rx="2" />
    <rect x="320" y="200" width="4" height="370" rx="2" />
    <rect x="380" y="320" width="4" height="250" rx="2" />
    <rect x="440" y="160" width="4" height="410" rx="2" />
  </g>
</svg>
