<svg xmlns="http://www.w3.org/2000/svg" width="1200" height="630" viewBox="0 0 1200 630" role="img" aria-label="Rei das Vendas">
  <defs>
    <linearGradient id="bg" x1="0" y1="0" x2="1" y2="1">
      <stop offset="0" stop-color="#030305" />
      <stop offset="0.55" stop-color="#0A0A0F" />
      <stop offset="1" stop-color="#141418" />
    </linearGradient>
    <linearGradient id="gold" x1="0" y1="0" x2="1" y2="0">
      <stop offset="0" stop-color="#C9A84C" />
      <stop offset="1" stop-color="#E8D5A3" />
    </linearGradient>
    <radialGradient id="blueGlow" cx="72%" cy="28%" r="45%">
      <stop offset="0" stop-color="#0057FF" stop-opacity="0.35" />
      <stop offset="1" stop-color="#0057FF" stop-opacity="0" />
    </radialGradient>
    <filter id="blur" x="-20%" y="-20%" width="140%" height="140%">
      <feGaussianBlur stdDeviation="2" />
    </filter>
  </defs>
  <rect width="1200" height="630" fill="url(#bg)" />
  <rect width="1200" height="630" fill="url(#blueGlow)" />
  <g opacity="0.08" stroke="#fff" stroke-width="1">
    <path d="M0 80 H1200 M0 160 H1200 M0 240 H1200 M0 320 H1200 M0 400 H1200 M0 480 H1200 M0 560 H1200" />
    <path d="M80 0 V630 M160 0 V630 M240 0 V630 M320 0 V630 M400 0 V630 M480 0 V630 M560 0 V630 M640 0 V630 M720 0 V630 M800 0 V630 M880 0 V630 M960 0 V630 M1040 0 V630 M1120 0 V630" />
  </g>
  <rect x="720" y="48" width="432" height="534" rx="24" fill="#0B0B10" opacity="0.85" />
  <rect x="748" y="76" width="376" height="220" rx="12" fill="#1a1a22" />
  <rect x="748" y="316" width="180" height="120" rx="10" fill="#1a1a22" />
  <rect x="944" y="316" width="180" height="120" rx="10" fill="#1a1a22" />
  <rect x="748" y="456" width="376" height="98" rx="10" fill="#0057FF" opacity="0.25" />
  <text x="96" y="200" fill="url(#gold)" font-family="Georgia, 'Times New Roman', serif" font-size="22" font-style="italic" letter-spacing="0.12em">
    REI DAS VENDAS
  </text>
  <text x="96" y="290" fill="#FFFFFF" font-family="system-ui, -apple-system, Segoe UI, sans-serif" font-size="56" font-weight="700" letter-spacing="-0.02em">
    Seu negócio local
  </text>
  <text x="96" y="360" fill="#B8B8C0" font-family="system-ui, -apple-system, Segoe UI, sans-serif" font-size="56" font-weight="600" letter-spacing="-0.02em">
    vendendo como
  </text>
  <text x="96" y="430" fill="#FFFFFF" font-family="system-ui, -apple-system, Segoe UI, sans-serif" font-size="56" font-weight="700" letter-spacing="-0.02em">
    as gigantes.
  </text>
  <text x="96" y="510" fill="#FFFFFF" fill-opacity="0.55" font-family="system-ui, sans-serif" font-size="22" font-weight="500">
    Site · funil · WhatsApp · automação · Franca-SP
  </text>
  <rect x="96" y="548" width="220" height="4" fill="url(#gold)" opacity="0.9" />
</svg>
